# xmcd
#
# Track frame offsets: 
#        150
#        12245
#        25650
#        37125
#        47055
#        60387
#        73880
#        87642
#        101940
#        113685
#        127910
#        139997
#        152535
#        164685
#        176867
#        190702
#        205655
#        219270
#        233037
#        245205
#        257985
#        271627
#
# Disc length: 3772 seconds
#
# Revision: 3
# Processed by: cddbd v1.5.2PL0 Copyright (c) Steve Scherf et al.
# Submitted via: ExactAudioCopy v1.0b3
#
DISCID=3f0eba16
DTITLE=Various Artist - The R&B Hits of 1948 [CD2)
DYEAR=1948
DGENRE=R&B
TTITLE0=Bill Moore - We're Gonna Rock
TTITLE1=Jimmy Liggins - Tear Drop Blues
TTITLE2=Mabel Scott - Elevator Boogie
TTITLE3=Eddie Camblee and Sonny Thompson - Creeping Late Freight
TTITLE4=Hal Singer - Cornbread
TTITLE5=The Orioles - It's Too Soon To Know
TTITLE6=Cab Calloway and His Orchestra - The Calloway Boogie
TTITLE7=Muddy Waters - I Feel Like Going Home
TTITLE8=Roy Milton - Hop, Skip And Jump
TTITLE9=Lowell Fulson - Three O'Clock Blues
TTITLE10=Brownie McGhee - My Fault
TTITLE11=T-Bone Walker - West Side Baby
TTITLE12=Little Son Jackson - Freedom Train Blues
TTITLE13=Todd Rhodes - Blues For The Red Boy
TTITLE14=Pee Wee Crayton - Blues After Hours
TTITLE15=Martha Davis and Louis Jordan - Daddy-O
TTITLE16=Roy Brown - Long 'Bout Midnight
TTITLE17=Joe Swift - That's Your Last Boogie
TTITLE18=Tiny Grimes Quintet - Midnight Special
TTITLE19=Amos Milburn - Chicken Shack Boogie
TTITLE20=Sonny Boy Williamson - Better Cut That Out
TTITLE21=Sister Rosetta Tharpe - Up Above My Head
EXTD=Indigo Recordings Ltd.
EXTT0=
EXTT1=
EXTT2=
EXTT3=
EXTT4=
EXTT5=
EXTT6=
EXTT7=
EXTT8=
EXTT9=
EXTT10=
EXTT11=
EXTT12=
EXTT13=
EXTT14=
EXTT15=
EXTT16=
EXTT17=
EXTT18=
EXTT19=
EXTT20=
EXTT21=
PLAYORDER=
